{
  "accessors": [
    {
      "bufferView": 3,
      "componentType": 5126,
      "count": 5465,
      "max": [
        103.71369171142578,
        71.53456115722656,
        -28.97057342529297
      ],
      "min": [
        -104.1117172241211,
        -15.549751281738281,
        -230.0186767578125
      ],
      "type": "VEC3"
    },
    {
      "bufferView": 3,
      "byteOffset": 65580,
      "componentType": 5126,
      "count": 5465,
      "max": [
        0.9999855160713196,
        0.9941521883010864,
        0.9994606375694275
      ],
      "min": [
        -0.9999855160713196,
        -0.9990555047988892,
        -0.9999968409538269
      ],
      "type": "VEC3"
    },
    {
      "bufferView": 2,
      "componentType": 5126,
      "count": 5465,
      "max": [
        0.9751108288764954,
        0.9847434759140015
      ],
      "min": [
        0.01888113096356392,
        0.5153734087944031
      ],
      "type": "VEC2"
    },
    {
      "bufferView": 1,
      "componentType": 5125,
      "count": 29958,
      "type": "SCALAR"
    },
    {
      "bufferView": 3,
      "byteOffset": 131160,
      "componentType": 5126,
      "count": 7035,
      "max": [
        122.52692413330078,
        -0.9651641845703125,
        -6.557464599609375
      ],
      "min": [
        -122.9249496459961,
        -98.238525390625,
        -237.3280792236328
      ],
      "type": "VEC3"
    },
    {
      "bufferView": 3,
      "byteOffset": 215580,
      "componentType": 5126,
      "count": 7035,
      "max": [
        0.9999855160713196,
        0.9999019503593445,
        0.9999930262565613
      ],
      "min": [
        -0.9999854564666748,
        -0.9999459385871887,
        -0.9999697804450989
      ],
      "type": "VEC3"
    },
    {
      "bufferView": 2,
      "byteOffset": 43720,
      "componentType": 5126,
      "count": 7035,
      "max": [
        0.9831790924072266,
        0.9847655296325684
      ],
      "min": [
        0.007973783649504185,
        0.02011360228061676
      ],
      "type": "VEC2"
    },
    {
      "bufferView": 1,
      "byteOffset": 119832,
      "componentType": 5125,
      "count": 38976,
      "type": "SCALAR"
    },
    {
      "bufferView": 3,
      "byteOffset": 300000,
      "componentType": 5126,
      "count": 2551,
      "max": [
        91.84040832519531,
        107.1217041015625,
        79.40071105957031
      ],
      "min": [
        -91.84040832519531,
        -99.16133117675781,
        -12.906059265136719
      ],
      "type": "VEC3"
    },
    {
      "bufferView": 3,
      "byteOffset": 330612,
      "componentType": 5126,
      "count": 2551,
      "max": [
        0.9999569654464722,
        0.9802302122116089,
        0.9998156428337097
      ],
      "min": [
        -0.9999569654464722,
        -0.9991464018821716,
        -0.9508247375488281
      ],
      "type": "VEC3"
    },
    {
      "bufferView": 2,
      "byteOffset": 100000,
      "componentType": 5126,
      "count": 2551,
      "max": [
        0.5315048098564148,
        0.5158929228782654
      ],
      "min": [
        0.22264644503593445,
        0.19533199071884155
      ],
      "type": "VEC2"
    },
    {
      "bufferView": 1,
      "byteOffset": 275736,
      "componentType": 5125,
      "count": 15024,
      "type": "SCALAR"
    },
    {
      "bufferView": 3,
      "byteOffset": 361224,
      "componentType": 5126,
      "count": 5680,
      "max": [
        109.71717071533203,
        93.50172424316406,
        110.58639526367188
      ],
      "min": [
        -109.71717071533203,
        -144.4776611328125,
        -23.009252548217773
      ],
      "type": "VEC3"
    },
    {
      "bufferView": 3,
      "byteOffset": 429384,
      "componentType": 5126,
      "count": 5680,
      "max": [
        0.9993962645530701,
        0.9989290833473206,
        0.9998401999473572
      ],
      "min": [
        -0.9993962645530701,
        -0.9966092109680176,
        -0.996524453163147
      ],
      "type": "VEC3"
    },
    {
      "bufferView": 2,
      "byteOffset": 120408,
      "componentType": 5126,
      "count": 5680,
      "max": [
        0.92359459400177,
        0.5352336168289185
      ],
      "min": [
        0.010909706354141235,
        0.06561365723609924
      ],
      "type": "VEC2"
    },
    {
      "bufferView": 1,
      "byteOffset": 335832,
      "componentType": 5125,
      "count": 31824,
      "type": "SCALAR"
    },
    {
      "bufferView": 3,
      "byteOffset": 497544,
      "componentType": 5126,
      "count": 3885,
      "max": [
        79.01995849609375,
        -33.343040466308594,
        -48.00304412841797
      ],
      "min": [
        -79.01995849609375,
        -127.02037048339844,
        -162.88958740234375
      ],
      "type": "VEC3"
    },
    {
      "bufferView": 3,
      "byteOffset": 544164,
      "componentType": 5126,
      "count": 3885,
      "max": [
        0.9893016219139099,
        0.9964659214019775,
        0.9890560507774353
      ],
      "min": [
        -0.9893015623092651,
        -0.9993884563446045,
        -0.9994643330574036
      ],
      "type": "VEC3"
    },
    {
      "bufferView": 2,
      "byteOffset": 165848,
      "componentType": 5126,
      "count": 3885,
      "max": [
        0.9030911326408386,
        0.5150811076164246
      ],
      "min": [
        0.5761345028877258,
        0.3279242515563965
      ],
      "type": "VEC2"
    },
    {
      "bufferView": 1,
      "byteOffset": 463128,
      "componentType": 5125,
      "count": 22560,
      "type": "SCALAR"
    },
    {
      "bufferView": 5,
      "componentType": 5126,
      "count": 4,
      "max": [
        1.0,
        0.9999871850013733,
        0.0,
        0.0,
        0.0,
        1.0,
        1.5422687127397694e-08,
        0.0,
        0.0,
        1.036928551911842e-05,
        1.0,
        0.0,
        66.03990173339844,
        0.5811101794242859,
        134.8037872314453,
        1.0
      ],
      "min": [
        -0.005256076343357563,
        0.0,
        -1.0369340088800527e-05,
        0.0,
        -0.9999871850013733,
        -0.005256076343357563,
        -3.968227413331249e-10,
        0.0,
        -3.698838213495037e-08,
        0.0,
        1.0,
        0.0,
        -18.90709114074707,
        0.0,
        0.0,
        1.0
      ],
      "type": "MAT4"
    },
    {
      "bufferView": 0,
      "componentType": 5123,
      "count": 5465,
      "type": "VEC4"
    },
    {
      "bufferView": 4,
      "componentType": 5126,
      "count": 5465,
      "max": [
        0.913716733455658,
        0.5,
        0.0,
        0.0
      ],
      "min": [
        0.5,
        0.08628326654434204,
        0.0,
        0.0
      ],
      "type": "VEC4"
    },
    {
      "bufferView": 0,
      "byteOffset": 43720,
      "componentType": 5123,
      "count": 7035,
      "type": "VEC4"
    },
    {
      "bufferView": 4,
      "byteOffset": 87440,
      "componentType": 5126,
      "count": 7035,
      "max": [
        0.7829914093017578,
        0.5,
        0.0,
        0.0
      ],
      "min": [
        0.5,
        0.21700860559940338,
        0.0,
        0.0
      ],
      "type": "VEC4"
    }
  ],
  "asset": {
    "extras": {
      "author": "Akashredder (https://sketchfab.com/akashredder)",
      "license": "CC-BY-4.0 (http://creativecommons.org/licenses/by/4.0/)",
      "source": "https://sketchfab.com/3d-models/helmet-by-akashredder-eb62df68707c4e3b947e0e4fe7740549",
      "title": "Helmet by AKASHREDDER"
    },
    "generator": "Sketchfab-14.35.0",
    "version": "2.0"
  },
  "bufferViews": [
    {
      "buffer": 0,
      "byteLength": 100000,
      "byteStride": 8,
      "name": "shortBufferViews",
      "target": 34962
    },
    {
      "buffer": 0,
      "byteLength": 553368,
      "byteOffset": 100000,
      "name": "floatBufferViews",
      "target": 34963
    },
    {
      "buffer": 0,
      "byteLength": 196928,
      "byteOffset": 653368,
      "byteStride": 8,
      "name": "floatBufferViews",
      "target": 34962
    },
    {
      "buffer": 0,
      "byteLength": 590784,
      "byteOffset": 850296,
      "byteStride": 12,
      "name": "floatBufferViews",
      "target": 34962
    },
    {
      "buffer": 0,
      "byteLength": 200000,
      "byteOffset": 1441080,
      "byteStride": 16,
      "name": "floatBufferViews",
      "target": 34962
    },
    {
      "buffer": 0,
      "byteLength": 256,
      "byteOffset": 1641080,
      "name": "floatBufferViews"
    }
  ],
  "buffers": [
    {
      "byteLength": 1641336,
      "uri": "scene.bin"
    }
  ],
  "extensionsUsed": [
    "KHR_materials_clearcoat"
  ],
  "images": [
    {
      "uri": "textures/Helmet_baseColor.jpeg"
    },
    {
      "uri": "textures/Helmet_metallicRoughness.png"
    }
  ],
  "materials": [
    {
      "doubleSided": true,
      "extensions": {
        "KHR_materials_clearcoat": {
          "clearcoatFactor": 1.0,
          "clearcoatRoughnessFactor": 0.05333349587351123
        }
      },
      "name": "Helmet",
      "pbrMetallicRoughness": {
        "baseColorTexture": {
          "index": 0
        },
        "metallicRoughnessTexture": {
          "index": 1
        },
        "roughnessFactor": 0.0
      }
    }
  ],
  "meshes": [
    {
      "name": "High_plate_Helmet_0",
      "primitives": [
        {
          "attributes": {
            "JOINTS_0": 21,
            "NORMAL": 1,
            "POSITION": 0,
            "TEXCOORD_0": 2,
            "WEIGHTS_0": 22
          },
          "indices": 3,
          "material": 0,
          "mode": 4
        }
      ]
    },
    {
      "name": "Low_plate_Helmet_0",
      "primitives": [
        {
          "attributes": {
            "JOINTS_0": 23,
            "NORMAL": 5,
            "POSITION": 4,
            "TEXCOORD_0": 6,
            "WEIGHTS_0": 24
          },
          "indices": 7,
          "material": 0,
          "mode": 4
        }
      ]
    },
    {
      "name": "Helmet_Helmet_0",
      "primitives": [
        {
          "attributes": {
            "NORMAL": 9,
            "POSITION": 8,
            "TEXCOORD_0": 10
          },
          "indices": 11,
          "material": 0,
          "mode": 4
        }
      ]
    },
    {
      "name": "Overlap_Helmet_0",
      "primitives": [
        {
          "attributes": {
            "NORMAL": 13,
            "POSITION": 12,
            "TEXCOORD_0": 14
          },
          "indices": 15,
          "material": 0,
          "mode": 4
        }
      ]
    },
    {
      "name": "Mask_Helmet_0",
      "primitives": [
        {
          "attributes": {
            "NORMAL": 17,
            "POSITION": 16,
            "TEXCOORD_0": 18
          },
          "indices": 19,
          "material": 0,
          "mode": 4
        }
      ]
    }
  ],
  "nodes": [
    {
      "children": [
        1
      ],
      "matrix": [
        4.8854780197143555,
        0.0,
        0.0,
        0.0,
        0.0,
        1.0847940367573984e-15,
        -4.8854780197143555,
        0.0,
        0.0,
        4.8854780197143555,
        1.0847940367573984e-15,
        0.0,
        0.0,
        0.0,
        0.0,
        1.0
      ],
      "name": "Sketchfab_model"
    },
    {
      "children": [
        2
      ],
      "matrix": [
        0.0010000000474974513,
        0.0,
        0.0,
        0.0,
        0.0,
        0.0,
        0.0010000000474974513,
        0.0,
        0.0,
        -0.0010000000474974513,
        0.0,
        0.0,
        0.0,
        0.0,
        0.0,
        1.0
      ],
      "name": "49e0353a661843da805265cccbd10454.fbx"
    },
    {
      "children": [
        3
      ],
      "name": "RootNode"
    },
    {
      "children": [
        4,
        6,
        8,
        5,
        7,
        12,
        14,
        16
      ],
      "name": "Object_3"
    },
    {
      "children": [
        9
      ],
      "name": "_rootJoint"
    },
    {
      "matrix": [
        1.0,
        -5.835309317783e-19,
        -8.470329472543003e-22,
        0.0,
        -8.470329472542646e-22,
        6.123233995736766e-17,
        -1.0,
        0.0,
        5.835309317783e-19,
        1.0,
        6.123233995736766e-17,
        0.0,
        -0.19901290535926813,
        70.0794219970703,
        -114.63729858398438,
        1.0
      ],
      "name": "Object_5"
    },
    {
      "mesh": 0,
      "name": "Object_6",
      "skin": 0
    },
    {
      "matrix": [
        1.0,
        -5.835309317783e-19,
        -8.470329472543003e-22,
        0.0,
        -8.470329472542646e-22,
        6.123233995736766e-17,
        -1.0,
        0.0,
        5.835309317783e-19,
        1.0,
        6.123233995736766e-17,
        0.0,
        -0.19901290535926813,
        70.0794219970703,
        -114.63729858398438,
        1.0
      ],
      "name": "Object_7"
    },
    {
      "mesh": 1,
      "name": "Object_8",
      "skin": 0
    },
    {
      "children": [
        10
      ],
      "name": "Bone001_00",
      "rotation": [
        2.00173622033617e-06,
        -1.9909625734726433e-06,
        -0.7089626789093018,
        0.7052460312843323
      ],
      "translation": [
        -0.22878551483154297,
        66.04202270507813,
        -134.80377197265625
      ]
    },
    {
      "children": [
        11
      ],
      "name": "Bone002_01",
      "rotation": [
        2.361328597544343e-06,
        1.9413061380646468e-08,
        0.006516182329505682,
        0.99997878074646
      ],
      "translation": [
        84.94711303710938,
        5.0067901611328125e-06,
        -1.52587890625e-05
      ]
    },
    {
      "name": "Bone003_02",
      "rotation": [
        -2.3785541714005376e-07,
        1.4391282610048961e-09,
        -0.006050337105989456,
        0.999981701374054
      ],
      "scale": [
        1.0000001192092896,
        1.0000001192092896,
        1.0
      ],
      "translation": [
        76.01399993896484,
        -4.172325134277344e-07,
        1.52587890625e-05
      ]
    },
    {
      "children": [
        13
      ],
      "matrix": [
        1.0,
        0.0,
        0.0,
        0.0,
        0.0,
        2.220446049250313e-16,
        -1.0,
        0.0,
        0.0,
        1.0,
        2.220446049250313e-16,
        0.0,
        -0.1990129053592682,
        70.07942199707031,
        -114.63729858398438,
        1.0
      ],
      "name": "Helmet"
    },
    {
      "mesh": 2,
      "name": "Helmet_Helmet_0"
    },
    {
      "children": [
        15
      ],
      "matrix": [
        1.0,
        0.0,
        0.0,
        0.0,
        0.0,
        2.220446049250313e-16,
        -1.0,
        0.0,
        0.0,
        1.0,
        2.220446049250313e-16,
        0.0,
        -0.1990129053592682,
        70.07942199707031,
        -114.63729858398438,
        1.0
      ],
      "name": "Overlap"
    },
    {
      "mesh": 3,
      "name": "Overlap_Helmet_0"
    },
    {
      "children": [
        17
      ],
      "matrix": [
        1.0,
        0.0,
        0.0,
        0.0,
        0.0,
        2.220446049250313e-16,
        -1.0,
        0.0,
        0.0,
        1.0,
        2.220446049250313e-16,
        0.0,
        -0.1990129053592682,
        70.07942199707031,
        -114.63729858398438,
        1.0
      ],
      "name": "Mask"
    },
    {
      "mesh": 4,
      "name": "Mask_Helmet_0"
    }
  ],
  "samplers": [
    {
      "magFilter": 9729,
      "minFilter": 9987,
      "wrapS": 10497,
      "wrapT": 10497
    }
  ],
  "scene": 0,
  "scenes": [
    {
      "name": "Sketchfab_Scene",
      "nodes": [
        0
      ]
    }
  ],
  "skins": [
    {
      "inverseBindMatrices": 20,
      "joints": [
        4,
        9,
        10,
        11
      ],
      "skeleton": 4
    }
  ],
  "textures": [
    {
      "sampler": 0,
      "source": 0
    },
    {
      "sampler": 0,
      "source": 1
    }
  ]
}
